# xmcd
#
# Track frame offsets: 
#        150
#        15737
#        25466
#        35548
#        48606
#        60707
#        72060
#        87161
#        95636
#        105328
#
# Disc length: 1579 seconds
#
# Revision: 0
# Processed by: cddbd v1.5.2PL0 Copyright (c) Steve Scherf et al.
# Submitted via: ExactAudioCopy v1.0b1
#
DISCID=7e06290a
DTITLE=Dtella Parton - I Want To Hold You In My Dreams
DYEAR=1975
DGENRE=Country
TTITLE0=I Want To Hold You In My Dreams
TTITLE1=Don't Do It Again
TTITLE2=Long Legged Truck Drivers
TTITLE3=When The Fire Went Out Last Night
TTITLE4=I've Got To Get Back On The Right Side Of God
TTITLE5=It's Not Funny Anymore
TTITLE6=Ode To Olivia
TTITLE7=Truck Driving Mother
TTITLE8=You Kiss The Fire Out Of me
TTITLE9=The Mood I'm In
EXTD=
EXTT0=
EXTT1=
EXTT2=
EXTT3=
EXTT4=
EXTT5=
EXTT6=
EXTT7=
EXTT8=
EXTT9=
PLAYORDER=
